<svg viewBox="0 0 200 200" xmlns="http://www.w3.org/2000/svg">
  <defs>
    <linearGradient id="btnBg" x1="0%" y1="0%" x2="100%" y2="100%">
      <stop offset="0%" style="stop-color:#6D82CD;stop-opacity:1" />
      <stop offset="100%" style="stop-color:#9B8FD9;stop-opacity:1" />
    </linearGradient>
    <linearGradient id="miniCard" x1="0%" y1="0%" x2="100%" y2="100%">
      <stop offset="0%" style="stop-color:#ffffff;stop-opacity:0.95" />
      <stop offset="100%" style="stop-color:#f8f9ff;stop-opacity:0.95" />
    </linearGradient>
    <linearGradient id="numGrad" x1="0%" y1="0%" x2="100%" y2="100%">
      <stop offset="0%" style="stop-color:#6D82CD;stop-opacity:1" />
      <stop offset="100%" style="stop-color:#9B8FD9;stop-opacity:1" />
    </linearGradient>
    <filter id="btnShadow">
      <feDropShadow dx="0" dy="6" stdDeviation="8" flood-opacity="0.2" />
    </filter>
    <filter id="cardShadow">
      <feDropShadow dx="0" dy="2" stdDeviation="3" flood-opacity="0.15" />
    </filter>
  </defs>
  <g filter="url(#btnShadow)">
    <rect x="10" y="10" width="180" height="180" rx="20" fill="url(#btnBg)" stroke="#ffffff" stroke-width="2" />
    <rect x="14" y="14" width="172" height="172" rx="18" fill="none" stroke="#ffffff" stroke-width="0.5" opacity="0.3" />
  </g>
  <g filter="url(#cardShadow)">
    <rect x="72" y="73" width="24" height="36" rx="3" fill="url(#miniCard)" stroke="#6D82CD" stroke-width="1.2" />
  </g>
  <g filter="url(#cardShadow)" transform="rotate(90 84 91)">
    <rect x="72" y="73" width="24" height="36" rx="3" fill="url(#miniCard)" stroke="#6D82CD" stroke-width="1.2" />
  </g>
  <g filter="url(#cardShadow)">
    <rect x="72" y="117" width="24" height="36" rx="3" fill="url(#miniCard)" stroke="#6D82CD" stroke-width="1.2" />
  </g>
  <g filter="url(#cardShadow)">
    <rect x="40" y="73" width="24" height="36" rx="3" fill="url(#miniCard)" stroke="#6D82CD" stroke-width="1.2" />
  </g>
  <g filter="url(#cardShadow)">
    <rect x="72" y="29" width="24" height="36" rx="3" fill="url(#miniCard)" stroke="#6D82CD" stroke-width="1.2" />
  </g>
  <g filter="url(#cardShadow)">
    <rect x="104" y="73" width="24" height="36" rx="3" fill="url(#miniCard)" stroke="#6D82CD" stroke-width="1.2" />
  </g>
  <g filter="url(#cardShadow)">
    <rect x="136" y="29" width="24" height="36" rx="3" fill="url(#miniCard)" stroke="#6D82CD" stroke-width="1.2" />
  </g>
  <g filter="url(#cardShadow)">
    <rect x="136" y="69" width="24" height="36" rx="3" fill="url(#miniCard)" stroke="#6D82CD" stroke-width="1.2" />
  </g>
  <g filter="url(#cardShadow)">
    <rect x="136" y="109" width="24" height="36" rx="3" fill="url(#miniCard)" stroke="#6D82CD" stroke-width="1.2" />
  </g>
  <g filter="url(#cardShadow)">
    <rect x="136" y="149" width="24" height="36" rx="3" fill="url(#miniCard)" stroke="#6D82CD" stroke-width="1.2" />
  </g>
  <circle cx="100" cy="20" r="3" fill="#ffffff" opacity="0.6" />
  <circle cx="100" cy="180" r="3" fill="#ffffff" opacity="0.6" />
</svg>
