<?xml version="1.0" encoding="UTF-8"?><svg viewBox="0 0 400 307.6923076923077" xmlns="http://www.w3.org/2000/svg"
><defs><style> text { pointer-events: none; } </style></defs><rect width="400" height="307.6923076923077" fill="transparent"/><g transform="rotate(-7 120 61.53846153846154)"><rect x="95.0" y="21.5" width="50" height="80" rx="4" fill="#1a1a2e" stroke="#7c3aed" stroke-width="2" opacity="0.9" /><text x="120.0" y="61.5" text-anchor="middle" dominant-baseline="middle" fill="#a78bfa" font-size="20" font-weight="600" font-family="system-ui, -apple-system, sans-serif" >1</text></g><g transform="rotate(6 280 76.92307692307692)"><rect x="255.0" y="36.9" width="50" height="80" rx="4" fill="#1a1a2e" stroke="#7c3aed" stroke-width="2" opacity="0.9" /><text x="280.0" y="76.9" text-anchor="middle" dominant-baseline="middle" fill="#a78bfa" font-size="20" font-weight="600" font-family="system-ui, -apple-system, sans-serif" >2</text></g><g transform="rotate(-4 100 138.46153846153845)"><rect x="75.0" y="98.5" width="50" height="80" rx="4" fill="#1a1a2e" stroke="#7c3aed" stroke-width="2" opacity="0.9" /><text x="100.0" y="138.5" text-anchor="middle" dominant-baseline="middle" fill="#a78bfa" font-size="20" font-weight="600" font-family="system-ui, -apple-system, sans-serif" >3</text></g><g ><rect x="175.0" y="113.8" width="50" height="80" rx="4" fill="#1a1a2e" stroke="#7c3aed" stroke-width="2" opacity="0.9" /><text x="200.0" y="153.8" text-anchor="middle" dominant-baseline="middle" fill="#a78bfa" font-size="20" font-weight="600" font-family="system-ui, -apple-system, sans-serif" >4</text></g><g transform="rotate(5 300 169.23076923076923)"><rect x="275.0" y="129.2" width="50" height="80" rx="4" fill="#1a1a2e" stroke="#7c3aed" stroke-width="2" opacity="0.9" /><text x="300.0" y="169.2" text-anchor="middle" dominant-baseline="middle" fill="#a78bfa" font-size="20" font-weight="600" font-family="system-ui, -apple-system, sans-serif" >5</text></g><g transform="rotate(-3 140 230.76923076923077)"><rect x="115.0" y="190.8" width="50" height="80" rx="4" fill="#1a1a2e" stroke="#7c3aed" stroke-width="2" opacity="0.9" /><text x="140.0" y="230.8" text-anchor="middle" dominant-baseline="middle" fill="#a78bfa" font-size="20" font-weight="600" font-family="system-ui, -apple-system, sans-serif" >6</text></g><g transform="rotate(4 260 246.15384615384616)"><rect x="235.0" y="206.2" width="50" height="80" rx="4" fill="#1a1a2e" stroke="#7c3aed" stroke-width="2" opacity="0.9" /><text x="260.0" y="246.2" text-anchor="middle" dominant-baseline="middle" fill="#a78bfa" font-size="20" font-weight="600" font-family="system-ui, -apple-system, sans-serif" >7</text></g></svg>