<?xml version="1.0" encoding="UTF-8"?><svg viewBox="0 0 400 400" xmlns="http://www.w3.org/2000/svg"
><defs><style> text { pointer-events: none; } </style></defs><rect width="400" height="400" fill="transparent"/><g transform="rotate(-4 120 120)"><rect x="95.0" y="80.0" width="50" height="80" rx="4" fill="#1a1a2e" stroke="#7c3aed" stroke-width="2" opacity="0.9" /><text x="120.0" y="120.0" text-anchor="middle" dominant-baseline="middle" fill="#a78bfa" font-size="20" font-weight="600" font-family="system-ui, -apple-system, sans-serif" >1</text></g><g transform="rotate(4 280 120)"><rect x="255.0" y="80.0" width="50" height="80" rx="4" fill="#1a1a2e" stroke="#7c3aed" stroke-width="2" opacity="0.9" /><text x="280.0" y="120.0" text-anchor="middle" dominant-baseline="middle" fill="#a78bfa" font-size="20" font-weight="600" font-family="system-ui, -apple-system, sans-serif" >2</text></g><g transform="rotate(-5 280 280)"><rect x="255.0" y="240.0" width="50" height="80" rx="4" fill="#1a1a2e" stroke="#7c3aed" stroke-width="2" opacity="0.9" /><text x="280.0" y="280.0" text-anchor="middle" dominant-baseline="middle" fill="#a78bfa" font-size="20" font-weight="600" font-family="system-ui, -apple-system, sans-serif" >3</text></g><g transform="rotate(5 120 280)"><rect x="95.0" y="240.0" width="50" height="80" rx="4" fill="#1a1a2e" stroke="#7c3aed" stroke-width="2" opacity="0.9" /><text x="120.0" y="280.0" text-anchor="middle" dominant-baseline="middle" fill="#a78bfa" font-size="20" font-weight="600" font-family="system-ui, -apple-system, sans-serif" >4</text></g><g ><rect x="175.0" y="60.0" width="50" height="80" rx="4" fill="#1a1a2e" stroke="#7c3aed" stroke-width="2" opacity="0.9" /><text x="200.0" y="100.0" text-anchor="middle" dominant-baseline="middle" fill="#a78bfa" font-size="20" font-weight="600" font-family="system-ui, -apple-system, sans-serif" >5</text></g><g transform="rotate(-3 300 200)"><rect x="275.0" y="160.0" width="50" height="80" rx="4" fill="#1a1a2e" stroke="#7c3aed" stroke-width="2" opacity="0.9" /><text x="300.0" y="200.0" text-anchor="middle" dominant-baseline="middle" fill="#a78bfa" font-size="20" font-weight="600" font-family="system-ui, -apple-system, sans-serif" >6</text></g><g ><rect x="175.0" y="260.0" width="50" height="80" rx="4" fill="#1a1a2e" stroke="#7c3aed" stroke-width="2" opacity="0.9" /><text x="200.0" y="300.0" text-anchor="middle" dominant-baseline="middle" fill="#a78bfa" font-size="20" font-weight="600" font-family="system-ui, -apple-system, sans-serif" >7</text></g><g transform="rotate(3 100 200)"><rect x="75.0" y="160.0" width="50" height="80" rx="4" fill="#1a1a2e" stroke="#7c3aed" stroke-width="2" opacity="0.9" /><text x="100.0" y="200.0" text-anchor="middle" dominant-baseline="middle" fill="#a78bfa" font-size="20" font-weight="600" font-family="system-ui, -apple-system, sans-serif" >8</text></g></svg>